<svg width="29" height="24" viewBox="0 0 29 24" fill="none" xmlns="http://www.w3.org/2000/svg">
<path d="M17.3588 23.6455L29 12.0591L17.3588 0.472761C17.2537 0.336059 17.1201 0.223319 16.9671 0.142175C16.8142 0.0610297 16.6454 0.0133741 16.4722 0.00243341C16.299 -0.00850727 16.1255 0.0175231 15.9633 0.0787616C15.8012 0.14 15.6542 0.235017 15.5324 0.35738C15.4106 0.479743 15.3167 0.626596 15.2572 0.787996C15.1977 0.949396 15.1739 1.12158 15.1874 1.29288C15.2009 1.46418 15.2515 1.63061 15.3356 1.78089C15.4197 1.93117 15.5355 2.0618 15.675 2.16394L24.3847 10.8597L1.21136 10.8597C0.890089 10.8597 0.581977 10.9861 0.354803 11.211C0.127628 11.4359 1.39413e-06 11.741 1.38023e-06 12.0591C1.36632e-06 12.3772 0.127628 12.6823 0.354803 12.9072C0.581977 13.1322 0.890089 13.2585 1.21136 13.2585L24.3847 13.2585L15.675 21.9543C15.4485 22.1802 15.3219 22.4859 15.3231 22.8041C15.3242 23.1224 15.453 23.4272 15.6811 23.6515C15.9092 23.8758 16.2179 24.0011 16.5394 24C16.8608 23.9989 17.1687 23.8714 17.3952 23.6455L17.3588 23.6455Z" fill="white"/>
</svg>
