<svg width="35" height="35" viewBox="0 0 35 35" fill="none" xmlns="http://www.w3.org/2000/svg">
<path d="M28.416 29.3913L19.2839 20.2592C18.5548 20.8804 17.7162 21.3612 16.7683 21.7015C15.8204 22.0417 14.8676 22.2119 13.91 22.2119C11.5786 22.2119 9.60302 21.402 7.98329 19.7823C6.36357 18.1616 5.55371 16.1856 5.55371 13.8542C5.55371 11.5228 6.36357 9.54722 7.98329 7.9275C9.60302 6.30778 11.5786 5.49743 13.91 5.49646C16.2414 5.49549 18.2174 6.30584 19.8381 7.9275C21.4588 9.54917 22.2686 11.5247 22.2677 13.8542C22.2677 14.8672 22.0883 15.8477 21.7295 16.7956C21.3708 17.7435 20.8993 18.5544 20.315 19.2281L29.447 28.3588L28.416 29.3913ZM13.9114 20.7521C15.8461 20.7521 17.4795 20.0861 18.8114 18.7542C20.1434 17.4222 20.8093 15.7884 20.8093 13.8527C20.8093 11.917 20.1434 10.2837 18.8114 8.95271C17.4795 7.62174 15.8461 6.95577 13.9114 6.95479C11.9767 6.95382 10.3429 7.61979 9.00996 8.95271C7.67704 10.2856 7.01107 11.919 7.01204 13.8527C7.01302 15.7865 7.67899 17.4198 9.00996 18.7527C10.3409 20.0856 11.9743 20.7516 13.91 20.7506" fill="black"/>
</svg>
