<svg width="35" height="35" viewBox="0 0 35 35" fill="none" xmlns="http://www.w3.org/2000/svg">
<path d="M23.333 26.25C24.1066 26.25 24.8484 26.5573 25.3954 27.1043C25.9424 27.6513 26.2497 28.3931 26.2497 29.1667C26.2497 29.9402 25.9424 30.6821 25.3954 31.2291C24.8484 31.776 24.1066 32.0833 23.333 32.0833C22.5595 32.0833 21.8176 31.776 21.2706 31.2291C20.7236 30.6821 20.4163 29.9402 20.4163 29.1667C20.4163 28.3931 20.7236 27.6513 21.2706 27.1043C21.8176 26.5573 22.5595 26.25 23.333 26.25ZM23.333 27.7083C22.9462 27.7083 22.5753 27.862 22.3018 28.1355C22.0283 28.409 21.8747 28.7799 21.8747 29.1667C21.8747 29.5534 22.0283 29.9244 22.3018 30.1979C22.5753 30.4714 22.9462 30.625 23.333 30.625C23.7198 30.625 24.0907 30.4714 24.3642 30.1979C24.6377 29.9244 24.7913 29.5534 24.7913 29.1667C24.7913 28.7799 24.6377 28.409 24.3642 28.1355C24.0907 27.862 23.7198 27.7083 23.333 27.7083ZM10.208 26.25C10.9816 26.25 11.7234 26.5573 12.2704 27.1043C12.8174 27.6513 13.1247 28.3931 13.1247 29.1667C13.1247 29.9402 12.8174 30.6821 12.2704 31.2291C11.7234 31.776 10.9816 32.0833 10.208 32.0833C9.43446 32.0833 8.69259 31.776 8.14561 31.2291C7.59863 30.6821 7.29134 29.9402 7.29134 29.1667C7.29134 28.3931 7.59863 27.6513 8.14561 27.1043C8.69259 26.5573 9.43446 26.25 10.208 26.25ZM10.208 27.7083C9.82123 27.7083 9.4503 27.862 9.17681 28.1355C8.90332 28.409 8.74967 28.7799 8.74967 29.1667C8.74967 29.5534 8.90332 29.9244 9.17681 30.1979C9.4503 30.4714 9.82123 30.625 10.208 30.625C10.5948 30.625 10.9657 30.4714 11.2392 30.1979C11.5127 29.9244 11.6663 29.5534 11.6663 29.1667C11.6663 28.7799 11.5127 28.409 11.2392 28.1355C10.9657 27.862 10.5948 27.7083 10.208 27.7083ZM26.2497 8.75H6.22676L9.94551 17.5H21.8747C22.3559 17.5 22.7788 17.2667 23.0413 16.9167L27.4163 11.0833C27.6059 10.8354 27.708 10.5292 27.708 10.2083C27.708 9.82156 27.5544 9.45063 27.2809 9.17714C27.0074 8.90365 26.6364 8.75 26.2497 8.75ZM21.8747 18.9583H10.0184L8.89551 21.2333L8.74967 21.875C8.74967 22.2618 8.90332 22.6327 9.17681 22.9062C9.4503 23.1797 9.82123 23.3333 10.208 23.3333H26.2497V24.7917H10.208C9.43446 24.7917 8.69259 24.4844 8.14561 23.9374C7.59863 23.3904 7.29134 22.6485 7.29134 21.875C7.29091 21.3802 7.41637 20.8934 7.65592 20.4604L8.70592 18.3167L3.41217 5.83333H1.45801V4.375H4.37467L5.61426 7.29167H26.2497C27.0232 7.29167 27.7651 7.59896 28.3121 8.14594C28.8591 8.69292 29.1663 9.43479 29.1663 10.2083C29.1663 10.9375 28.9184 11.55 28.5101 12.0458L24.2663 17.7187C23.7413 18.4625 22.8663 18.9583 21.8747 18.9583Z" fill="black"/>
</svg>
