<svg width="30" height="30" viewBox="0 0 30 30" fill="none" xmlns="http://www.w3.org/2000/svg">
<path d="M15.4284 19.5714C22.5256 19.5714 28.2856 22.2629 28.2856 25.5714V29.8571H2.57129V25.5714C2.57129 22.2629 8.33129 19.5714 15.4284 19.5714ZM26.5713 25.5714C26.5713 23.2057 21.5827 21.2857 15.4284 21.2857C9.27415 21.2857 4.28557 23.2057 4.28557 25.5714V28.1429H26.5713V25.5714ZM15.4284 4.14285C17.0197 4.14285 18.5459 4.77499 19.6711 5.90021C20.7963 7.02543 21.4284 8.55155 21.4284 10.1429C21.4284 11.7342 20.7963 13.2603 19.6711 14.3855C18.5459 15.5107 17.0197 16.1429 15.4284 16.1429C13.8371 16.1429 12.311 15.5107 11.1858 14.3855C10.0606 13.2603 9.42843 11.7342 9.42843 10.1429C9.42843 8.55155 10.0606 7.02543 11.1858 5.90021C12.311 4.77499 13.8371 4.14285 15.4284 4.14285ZM15.4284 5.85714C14.2918 5.85714 13.2017 6.30867 12.398 7.11239C11.5942 7.91612 11.1427 9.00621 11.1427 10.1429C11.1427 11.2795 11.5942 12.3696 12.398 13.1733C13.2017 13.977 14.2918 14.4286 15.4284 14.4286C16.5651 14.4286 17.6552 13.977 18.4589 13.1733C19.2626 12.3696 19.7141 11.2795 19.7141 10.1429C19.7141 9.00621 19.2626 7.91612 18.4589 7.11239C17.6552 6.30867 16.5651 5.85714 15.4284 5.85714Z" fill="black"/>
</svg>
